<svg width="86" height="21" viewBox="0 0 86 21" fill="none" xmlns="http://www.w3.org/2000/svg">
<g clip-path="url(#clip0_6002_72)">
<path d="M74.7534 0.826904V20.2274H70.9932L60.4482 6.8487V20.173H55.925V0.826904H61.1839L70.3392 12.6798V0.826904H74.7534Z" fill="#1A1A1A"/>
<path d="M45.4695 20.173V0.826904H50.1016V20.173H45.4695Z" fill="#1A1A1A"/>
<path d="M23.7563 20.173V0.826904H39.9416V4.64162H28.3885V8.12936H35.2822V12.0258H28.3885V16.1675H41.0043V20.173H23.7563Z" fill="#1A1A1A"/>
<path d="M9.91826 20.5C7.01181 20.5 4.63215 19.5554 2.77929 17.6662C0.92643 15.7589 0 13.3701 0 10.5C0 7.57539 0.935513 5.17757 2.80654 3.30654C4.67757 1.43551 7.04814 0.5 9.91826 0.5C11.7166 0.5 13.3697 0.890554 14.8774 1.67166C16.4033 2.43461 17.5568 3.56994 18.3379 5.07766C18.7193 5.8406 18.9646 6.49455 19.0736 7.03951H14.3597C14.2688 6.87602 14.1054 6.64896 13.8692 6.35831C13.3061 5.74069 12.5795 5.25931 11.6894 4.91417C11.1626 4.75068 10.5722 4.66894 9.91826 4.66894C8.31971 4.66894 7.05722 5.24115 6.13079 6.38556C5.20436 7.51181 4.74114 8.88329 4.74114 10.5C4.74114 12.1349 5.21344 13.5154 6.15804 14.6417C7.10263 15.7679 8.35604 16.3311 9.91826 16.3311C11.6803 16.3311 13.0154 15.7679 13.9237 14.6417C14.1962 14.2602 14.3506 14.0332 14.3869 13.9605H19.0736C18.8738 15.2139 18.3015 16.3583 17.3569 17.3937C16.4124 18.411 15.3134 19.1921 14.0599 19.7371C12.97 20.2457 11.5895 20.5 9.91826 20.5Z" fill="#1A1A1A"/>
<circle cx="81.5" cy="18" r="2.5" fill="#1A1A1A"/>
</g>
<defs>
<clipPath id="clip0_6002_72">
<rect width="86" height="20" fill="white" transform="translate(0 0.5)"/>
</clipPath>
</defs>
</svg>
